<?xml version="1.0" standalone="no"?>
<!DOCTYPE svg PUBLIC "-//W3C//DTD SVG 20010904//EN"
 "http://www.w3.org/TR/2001/REC-SVG-20010904/DTD/svg10.dtd">
<svg version="1.0" xmlns="http://www.w3.org/2000/svg"
 width="1080.000000pt" height="2280.000000pt" viewBox="0 0 1080.000000 2280.000000"
 preserveAspectRatio="xMidYMid meet">

<g transform="translate(0.000000,2280.000000) scale(0.100000,-0.100000)"
fill="#000000" stroke="none">
<path d="M791 22783 c21 -26 32 -33 57 -33 13 0 22 -6 22 -15 0 -8 5 -15 10
-15 6 0 10 -7 10 -15 0 -9 7 -27 16 -40 9 -14 12 -25 6 -25 -18 0 0 -41 24
-57 13 -8 24 -21 24 -28 0 -26 30 -23 59 4 l31 29 10 -37 c18 -64 10 -101 -21
-101 -22 0 -25 -18 -4 -26 8 -3 22 1 31 11 15 15 18 15 40 -6 13 -12 24 -28
24 -34 0 -7 11 -17 25 -23 15 -7 25 -20 25 -32 0 -11 4 -20 9 -20 5 0 12 -16
15 -36 7 -34 60 -97 114 -132 15 -9 20 -18 14 -24 -11 -11 -10 -12 58 -86 22
-24 40 -48 40 -53 0 -6 5 -7 10 -4 11 7 40 -18 40 -34 0 -7 8 -7 24 -1 30 11
51 -9 41 -40 -5 -15 -2 -20 10 -20 12 0 15 -5 11 -16 -4 -11 -2 -15 8 -11 9 4
16 -4 19 -21 3 -15 27 -47 52 -72 26 -25 57 -54 68 -66 12 -11 44 -31 71 -44
31 -15 52 -33 60 -51 15 -36 98 -126 131 -141 15 -6 25 -19 25 -31 0 -36 23
-87 42 -93 10 -3 18 -15 18 -27 0 -13 20 -45 46 -72 25 -28 45 -52 45 -55 0
-3 7 -4 15 -4 8 1 14 -7 14 -20 0 -28 8 -38 54 -66 47 -29 79 -58 95 -87 6
-13 18 -23 27 -23 18 0 69 -51 89 -89 10 -20 28 -34 57 -43 39 -13 43 -18 50
-56 4 -23 14 -55 22 -70 8 -15 20 -58 25 -96 7 -44 16 -73 26 -78 8 -5 15 -17
15 -27 0 -10 13 -23 33 -32 18 -8 31 -21 30 -29 -1 -8 12 -24 30 -35 17 -11
41 -35 52 -52 11 -18 29 -35 40 -39 11 -3 27 -12 35 -19 8 -7 34 -19 58 -26
23 -7 42 -18 42 -24 0 -19 31 -40 52 -37 18 3 22 -5 18 -47 -1 -18 2 -22 14
-18 9 4 16 2 16 -4 0 -6 5 -7 12 -3 7 4 8 3 4 -4 -3 -6 -9 -31 -11 -55 -3 -33
0 -48 11 -58 20 -17 44 -63 44 -87 0 -10 10 -28 23 -40 12 -11 28 -27 35 -34
7 -7 26 -26 42 -41 16 -15 34 -43 39 -63 5 -19 21 -48 35 -65 14 -17 26 -37
26 -44 0 -49 66 -109 148 -133 23 -7 42 -17 42 -23 0 -5 11 -14 24 -20 13 -6
30 -22 37 -35 15 -28 45 -34 34 -6 -4 9 -8 23 -8 30 0 6 -8 12 -18 12 -21 0
-31 36 -13 51 10 8 20 6 42 -10 34 -24 47 -75 25 -97 -12 -12 -12 -14 0 -14
19 0 47 -43 47 -74 0 -13 6 -26 14 -29 7 -3 17 -23 20 -44 4 -21 16 -55 27
-76 10 -21 19 -51 19 -67 0 -16 4 -31 9 -34 5 -3 18 -25 29 -49 11 -24 37 -60
56 -79 20 -20 36 -41 36 -48 0 -6 11 -26 25 -44 14 -18 25 -38 25 -44 0 -6 13
-23 28 -39 16 -15 31 -35 35 -43 4 -8 20 -37 37 -65 16 -27 37 -67 46 -87 10
-21 21 -38 26 -38 4 0 8 -4 8 -10 0 -11 101 -169 121 -191 17 -17 102 -191
118 -241 11 -32 62 -114 81 -128 13 -10 80 -115 80 -126 0 -6 24 -34 52 -63
56 -55 115 -143 172 -256 19 -38 46 -77 59 -85 58 -36 117 -85 122 -101 3 -9
19 -27 35 -39 17 -13 30 -30 30 -39 0 -9 6 -25 13 -36 7 -11 19 -37 26 -58 7
-21 34 -73 60 -115 25 -42 59 -106 75 -142 15 -36 36 -82 47 -102 10 -21 16
-38 13 -38 -3 0 4 -12 15 -26 12 -15 21 -36 21 -46 0 -21 58 -118 71 -118 4 0
13 -16 19 -36 7 -20 18 -48 26 -62 8 -15 14 -31 14 -35 0 -4 9 -20 19 -35 10
-15 22 -49 25 -75 3 -27 14 -62 23 -78 17 -28 17 -29 -7 -51 -22 -20 -22 -23
-7 -26 25 -5 50 6 42 18 -3 5 -1 10 4 10 6 0 11 -4 11 -10 0 -5 7 -18 16 -29
18 -21 94 -159 171 -310 31 -61 58 -100 76 -111 30 -18 97 -114 97 -138 0 -8
23 -52 51 -98 35 -57 58 -84 70 -84 13 0 20 -8 20 -22 1 -13 3 -30 4 -38 1 -8
3 -20 4 -26 0 -6 12 -24 25 -39 14 -16 29 -48 35 -72 6 -23 15 -43 20 -43 5 0
15 -16 21 -35 6 -19 25 -49 42 -66 29 -29 31 -35 29 -98 -2 -56 3 -79 25 -127
57 -126 64 -142 64 -153 0 -6 11 -16 24 -21 21 -8 25 -15 23 -48 -1 -28 5 -45
22 -63 12 -13 47 -73 78 -132 43 -84 58 -105 68 -97 10 8 15 8 21 -1 4 -7 0
-17 -8 -23 -14 -10 -14 -14 -2 -31 8 -10 14 -27 14 -36 0 -18 35 -90 70 -144
11 -16 25 -41 31 -55 6 -14 17 -38 24 -55 7 -16 16 -47 19 -68 2 -20 18 -63
34 -95 16 -31 35 -75 42 -97 7 -22 25 -65 40 -95 14 -30 39 -98 55 -150 15
-52 36 -104 45 -115 34 -40 50 -72 60 -125 5 -29 15 -59 21 -67 21 -24 89 12
89 47 0 23 49 33 76 15 12 -7 38 -29 58 -49 37 -34 37 -35 22 -65 -14 -27 -19
-29 -41 -21 -16 6 -35 5 -55 -1 -23 -9 -34 -8 -46 2 -14 11 -13 15 8 31 l23
19 -39 -5 c-60 -7 -69 -22 -47 -80 15 -40 27 -54 62 -73 24 -12 49 -23 55 -23
6 0 17 -7 25 -16 10 -12 10 -22 0 -51 -12 -32 -11 -38 8 -64 12 -15 21 -33 21
-39 0 -12 62 -14 75 -1 6 5 27 14 48 21 33 10 41 10 57 -5 25 -22 49 -13 63
25 11 30 30 39 42 20 10 -16 35 -12 62 10 14 11 34 20 43 20 35 0 31 83 -5 96
-20 8 -19 43 1 51 8 3 26 0 40 -7 21 -12 24 -20 24 -70 0 -71 -26 -151 -52
-158 -10 -2 -17 -10 -15 -16 5 -16 38 -20 47 -6 5 8 16 4 36 -13 16 -13 40
-28 54 -32 l25 -8 -24 -8 c-17 -7 -21 -14 -15 -27 10 -24 6 -82 -8 -99 -24
-29 -47 -34 -79 -17 -21 11 -44 14 -68 10 -20 -4 -58 -10 -86 -14 -72 -11 -95
-27 -95 -63 0 -31 -1 -31 -37 -24 -66 12 -69 21 -40 120 6 22 21 50 34 62 13
12 23 26 23 31 0 21 -33 35 -87 36 -56 1 -56 1 -65 -32 -8 -32 -4 -70 22 -172
6 -25 15 -49 21 -54 5 -6 9 -18 9 -27 0 -10 27 -73 60 -140 33 -67 60 -133 60
-146 0 -13 9 -41 19 -61 11 -21 23 -56 27 -77 3 -22 17 -60 29 -85 12 -25 28
-67 34 -95 7 -27 26 -70 41 -94 18 -26 29 -56 29 -75 -1 -17 4 -44 10 -60 6
-16 9 -38 5 -50 -7 -24 -74 -129 -79 -124 -4 4 -47 170 -48 185 0 8 -9 10 -24
7 -19 -5 -23 -2 -23 15 0 12 6 24 14 27 12 5 12 10 0 39 -8 19 -14 43 -14 55
0 11 -9 25 -20 32 -11 7 -20 23 -20 35 0 13 -13 52 -30 86 -16 35 -30 67 -30
71 0 14 -25 33 -38 28 -8 -2 -12 7 -12 27 0 16 -5 33 -11 37 -7 4 -9 24 -6 55
5 39 3 49 -9 49 -8 0 -22 18 -31 40 -10 22 -23 38 -29 36 -15 -6 -49 40 -58
79 -4 17 -14 37 -21 45 -7 8 -18 35 -25 58 -10 38 -14 43 -33 38 -26 -6 -47
10 -47 36 0 17 5 20 30 16 20 -3 30 0 30 8 0 15 -34 37 -43 28 -3 -3 -8 4 -12
15 -4 15 -15 21 -34 21 -15 0 -36 9 -46 20 -12 13 -31 20 -55 20 -24 0 -43 7
-55 20 -10 11 -26 22 -36 25 -11 4 -19 12 -19 19 0 8 -18 28 -40 46 -42 34
-50 50 -26 50 17 0 21 5 30 43 6 25 4 27 -28 27 -19 0 -44 9 -57 20 l-24 20
21 17 c12 10 29 33 38 51 14 28 20 31 36 22 29 -15 42 -44 27 -60 -10 -12 -9
-12 3 -3 8 6 31 14 51 18 49 9 60 31 43 81 -8 21 -14 48 -14 60 0 30 -29 84
-49 91 -19 7 -51 39 -51 51 0 16 -25 62 -34 62 -5 0 -3 7 4 15 15 19 3 35 -27
37 -10 1 -20 10 -20 20 -1 9 -11 28 -23 40 -22 24 -26 36 -33 103 -4 31 -16
52 -54 93 -28 28 -54 52 -58 52 -12 0 -39 34 -61 77 -10 21 -22 39 -26 41 -5
2 -8 10 -8 18 0 7 -12 21 -27 31 -40 25 -53 39 -53 57 0 8 -13 37 -30 63 -16
26 -30 53 -30 60 0 7 -4 13 -10 13 -5 0 -13 15 -18 33 -5 18 -18 37 -31 44
-29 14 -41 31 -41 60 0 16 -5 20 -19 16 -15 -4 -21 4 -32 41 -7 26 -19 46 -27
46 -9 0 -12 6 -8 15 7 19 -8 47 -53 97 -19 21 -41 51 -49 67 -7 16 -22 38 -33
49 -10 12 -19 25 -19 31 0 5 -6 11 -14 14 -8 3 -28 34 -45 69 -17 34 -31 57
-31 50 0 -6 -5 -12 -10 -12 -6 0 -10 6 -8 13 2 7 -7 25 -19 41 -19 23 -27 27
-52 21 -34 -7 -47 7 -42 47 2 19 -3 28 -18 33 -24 7 -36 43 -26 76 4 13 2 24
-5 29 -7 4 -15 29 -17 55 -3 26 -11 48 -17 50 -90 24 -102 31 -97 59 1 5 -5 6
-12 3 -11 -4 -13 0 -10 13 4 14 -2 21 -21 26 -14 3 -30 14 -35 23 -17 29 -23
4 -12 -54 6 -32 8 -62 5 -67 -13 -21 -11 -139 3 -146 7 -5 14 -25 16 -47 1
-31 -2 -40 -15 -43 -14 -3 -18 3 -18 22 0 16 -6 26 -15 26 -9 0 -15 10 -15 26
0 14 -4 23 -9 20 -9 -6 0 -75 24 -183 31 -138 37 -191 39 -343 2 -124 7 -170
24 -228 13 -45 23 -118 28 -195 3 -67 12 -149 20 -182 14 -60 20 -254 8 -242
-4 4 -10 57 -15 119 -4 62 -15 163 -23 223 -25 181 -45 317 -56 375 -6 30 -17
93 -24 140 -8 47 -19 114 -26 148 -6 35 -15 96 -20 135 -16 130 -29 204 -41
233 -7 16 -12 32 -11 35 1 4 -7 5 -17 2 -14 -4 -21 5 -34 44 -9 27 -14 58 -11
70 3 11 1 24 -5 27 -6 4 -11 19 -11 33 0 21 -4 24 -21 20 -28 -7 -34 15 -15
54 21 42 20 68 -1 76 -30 10 -53 46 -53 83 0 19 -10 69 -21 110 -11 41 -23 89
-26 105 -3 17 -11 37 -17 45 -7 8 -18 43 -25 78 -13 66 -30 112 -41 112 -13 0
-71 89 -86 132 -20 57 -38 74 -84 82 -40 6 -45 14 -41 59 1 9 -2 17 -8 17 -14
0 -65 51 -74 73 -4 10 -17 17 -31 17 -15 0 -27 7 -31 19 -3 11 -13 22 -21 25
-8 3 -12 10 -9 16 3 5 1 10 -5 10 -6 0 -9 4 -6 9 3 5 -5 12 -19 15 -14 4 -25
11 -25 17 0 6 -5 7 -10 4 -6 -3 -14 5 -19 18 -6 14 -15 28 -20 32 -12 7 -14
55 -3 70 8 11 20 12 80 1 23 -4 42 -12 42 -18 0 -5 16 -26 35 -46 20 -20 38
-48 42 -61 7 -27 50 -70 71 -71 6 0 12 -4 12 -9 0 -17 61 -71 81 -71 10 0 19
-4 19 -10 0 -5 11 -10 24 -10 14 0 28 -4 31 -10 3 -5 12 -10 20 -10 21 0 11
124 -15 190 -12 30 -28 71 -35 90 -23 58 -53 112 -88 153 -48 60 -57 67 -75
67 -10 0 -22 10 -27 23 -6 12 -17 23 -25 23 -8 1 -20 2 -26 3 -22 2 -24 31 -4
48 11 10 20 26 20 36 0 10 4 27 10 37 11 20 -5 78 -26 95 -6 6 -14 22 -18 37
-3 15 -22 42 -41 60 -19 17 -35 39 -35 49 0 10 -6 24 -13 31 -8 7 -25 31 -39
53 -14 22 -33 46 -42 54 -9 7 -16 24 -16 37 0 13 -9 28 -20 34 -11 6 -20 8
-20 4 0 -16 -50 49 -56 73 -10 40 -34 82 -34 61 0 -25 -22 -22 -48 5 -23 24
-31 90 -12 102 6 3 10 13 10 21 0 19 -109 248 -121 252 -5 2 -9 10 -9 18 0 9
-10 14 -27 14 -30 0 -74 36 -67 55 6 13 -22 28 -37 20 -4 -3 -30 21 -55 55
-26 33 -51 60 -56 60 -5 0 -14 11 -20 25 -6 13 -19 27 -28 30 -10 3 -32 35
-49 71 -22 47 -54 88 -111 145 -44 43 -85 92 -92 108 -7 17 -33 52 -58 78 -25
26 -57 64 -70 83 -14 19 -45 56 -69 82 -24 26 -49 56 -55 66 -45 75 -89 132
-98 126 -6 -4 -8 -3 -5 3 3 5 -7 20 -23 32 -17 12 -30 28 -30 36 0 8 -6 15
-14 15 -8 0 -26 30 -41 68 -15 37 -38 95 -52 129 -14 34 -33 72 -44 84 -10 12
-19 27 -19 33 0 7 -3 7 -8 -1 -9 -14 -35 3 -45 30 -3 9 -13 17 -21 17 -8 0
-18 9 -21 20 -3 11 -10 20 -14 20 -5 0 -14 14 -21 30 -7 17 -19 30 -26 30 -8
0 -14 7 -14 15 0 14 -38 79 -97 167 -14 21 -33 40 -42 43 -9 3 -27 29 -41 59
-16 33 -41 65 -67 86 -24 18 -43 36 -43 41 0 5 -5 9 -10 9 -14 0 -69 62 -70
77 0 7 -18 30 -40 52 -22 22 -40 44 -40 50 0 6 -10 16 -22 22 -13 7 -38 25
-56 40 -18 16 -43 29 -55 29 -24 0 -54 18 -92 56 -13 13 -35 24 -48 24 -14 0
-30 7 -37 15 -7 8 -21 15 -32 15 -33 0 -101 41 -141 84 -21 22 -57 61 -80 86
-23 24 -56 65 -73 91 -17 26 -52 67 -76 91 -25 24 -67 70 -95 103 -28 34 -71
72 -97 85 -25 14 -46 30 -46 36 0 6 -23 25 -51 44 -28 18 -53 39 -56 46 -3 8
-10 14 -17 14 -13 1 -76 56 -76 68 0 4 -14 16 -30 26 -45 26 -173 161 -191
200 -6 13 -31 39 -55 57 -24 18 -44 38 -44 45 0 6 -20 17 -46 24 -31 9 -43 17
-40 26 4 9 -2 14 -17 14 -14 0 -28 11 -38 28 -22 39 -50 39 -42 0 4 -21 2 -28
-10 -28 -26 0 -35 40 -14 62 11 11 9 17 -11 38 l-24 25 5 -30 c4 -16 4 -25 1
-19 -3 7 -14 10 -24 7 -25 -7 -27 22 -4 35 22 12 8 35 -16 27 -13 -4 -26 5
-47 34 -15 22 -38 42 -50 46 -14 3 -23 13 -23 25 0 24 -16 26 -37 5 -19 -20
-36 -9 -30 19 3 11 0 34 -6 50 l-12 28 -14 -26 c-17 -31 -36 -33 -51 -6 -9 17
-7 22 12 29 l22 8 -22 19 c-12 10 -22 24 -22 31 0 7 -11 13 -24 13 -16 0 -27
7 -31 20 -7 22 -25 26 -42 9 -24 -24 -41 -1 -48 61 -5 43 -12 63 -24 67 -9 4
-34 26 -56 50 -23 24 -46 43 -52 43 -6 0 -13 6 -16 13 -2 6 -8 8 -13 4 -5 -5
-10 -492 -12 -1124 -2 -951 0 -1126 12 -1187 18 -86 38 -106 106 -106 53 0 73
-16 84 -65 8 -34 8 -43 4 -69 -2 -10 6 -23 17 -30 11 -6 26 -19 33 -28 19 -25
29 -22 36 10 6 24 11 27 45 28 32 1 41 -3 50 -23 8 -18 16 -22 33 -18 19 5 23
2 24 -20 2 -29 3 -28 -30 -15 -19 7 -26 6 -26 -3 1 -24 39 -97 55 -103 12 -5
13 -9 4 -20 -6 -8 -18 -14 -25 -14 -8 0 -14 -5 -14 -12 0 -6 -3 -9 -6 -5 -11
11 -64 -23 -64 -42 0 -9 -11 -28 -25 -41 -31 -29 -32 -56 -3 -71 33 -18 58
-52 52 -71 -3 -9 3 -29 12 -43 22 -34 12 -41 -28 -22 -29 14 -36 14 -55 2 -12
-8 -43 -15 -68 -15 -50 0 -58 -9 -70 -83 -5 -31 -9 -37 -23 -32 -9 4 -34 9
-54 10 -21 2 -47 6 -58 10 -20 6 -21 4 -18 -82 3 -76 5 -88 20 -88 10 0 18 -4
18 -10 0 -5 -8 -10 -18 -10 -16 0 -17 -467 -20 -9287 l-2 -9288 5400 0 5400 0
0 9057 c0 5764 -4 9068 -10 9087 -5 17 -12 43 -15 59 -4 18 -12 27 -25 27 -11
0 -20 4 -20 10 0 5 -7 7 -15 4 -8 -4 -22 0 -31 7 -10 8 -45 13 -97 13 -68 0
-89 -4 -122 -23 -47 -27 -55 -37 -55 -72 0 -61 -132 -121 -204 -93 -28 11 -21
84 13 135 22 32 28 51 24 71 -7 35 22 72 50 64 31 -8 47 4 47 35 0 16 6 31 13
33 6 2 39 12 72 22 65 20 173 22 228 5 18 -5 48 -11 66 -13 31 -3 37 1 58 37
l23 40 0 2148 0 2147 -4450 0 -4450 0 0 -21 c0 -12 -5 -19 -12 -16 -7 2 -12
12 -12 21 2 15 -44 16 -548 16 -523 0 -550 -1 -537 -17z m286 -39 c3 -8 -2
-23 -11 -32 -15 -15 -17 -15 -33 0 -13 14 -14 20 -3 32 16 20 39 20 47 0z
m1783 -54 c0 -5 -2 -10 -4 -10 -3 0 -8 5 -11 10 -3 6 -1 10 4 10 6 0 11 -4 11
-10z m3548 -121 c3 -27 -20 -55 -38 -44 -11 7 -14 58 -3 69 14 14 38 0 41 -25z
m-3148 -39 c0 -5 -4 -10 -10 -10 -5 0 -10 5 -10 10 0 6 5 10 10 10 6 0 10 -4
10 -10z m-2080 -71 c0 -5 -7 -9 -15 -9 -15 0 -20 12 -9 23 8 8 24 -1 24 -14z
m5634 -57 c-6 -9 -17 -17 -25 -17 -18 0 -24 32 -8 51 11 13 14 13 28 -1 12
-12 13 -19 5 -33z m-4296 -280 c4 -25 -13 -30 -22 -6 -9 25 -7 36 7 32 6 -3
13 -14 15 -26z m3746 9 c9 -15 -23 -36 -36 -23 -5 5 -7 15 -4 21 9 13 33 14
40 2z m-4776 -63 c-6 -18 -28 -21 -28 -4 0 9 7 16 16 16 9 0 14 -5 12 -12z
m567 -27 c7 -12 -12 -24 -25 -16 -11 7 -4 25 10 25 5 0 11 -4 15 -9z m-502 -8
c9 -9 -13 -34 -24 -27 -14 8 -11 34 4 34 8 0 17 -3 20 -7z m7407 -83 c0 -5 -4
-10 -10 -10 -5 0 -10 5 -10 10 0 6 5 10 10 10 6 0 10 -4 10 -10z m-8810 -146
c0 -14 -21 -19 -33 -7 -9 9 13 34 24 27 5 -3 9 -12 9 -20z m3018 -3 c12 -7 37
-89 30 -97 -10 -9 -55 -13 -68 -5 -19 13 -18 90 1 102 17 11 21 11 37 0z
m6557 -312 c0 -7 -8 -15 -17 -17 -18 -3 -25 18 -11 32 10 10 28 1 28 -15z
m-4375 -89 c0 -5 -7 -10 -15 -10 -8 0 -15 5 -15 10 0 6 7 10 15 10 8 0 15 -4
15 -10z m1046 -35 c6 -16 -12 -45 -28 -45 -15 0 -21 30 -8 45 16 19 29 19 36
0z m-4066 -174 c0 -19 -52 -71 -71 -71 -33 0 -35 31 -5 57 27 23 76 32 76 14z
m3007 -37 c7 -18 -17 -38 -31 -24 -11 11 -1 40 14 40 6 0 13 -7 17 -16z m742
-78 c13 -16 4 -46 -14 -46 -19 0 -38 28 -31 45 7 19 30 19 45 1z m-5959 -71
c0 -8 -4 -15 -10 -15 -5 0 -10 7 -10 15 0 8 5 15 10 15 6 0 10 -7 10 -15z
m2400 -102 c0 -20 -34 -12 -38 9 -2 12 2 15 17 11 12 -3 21 -12 21 -20z m1170
-120 c0 -26 -16 -47 -29 -39 -12 8 -15 39 -4 49 13 13 33 7 33 -10z m890 -22
c0 -6 -4 -13 -10 -16 -5 -3 -10 1 -10 9 0 9 5 16 10 16 6 0 10 -4 10 -9z m880
-31 c0 -5 -5 -10 -11 -10 -5 0 -7 5 -4 10 3 6 8 10 11 10 2 0 4 -4 4 -10z
m-5415 -85 c18 -14 18 -16 2 -33 -16 -15 -19 -15 -27 -2 -12 18 -13 50 -2 50
4 0 16 -7 27 -15z m3013 -2 c-4 -22 -22 -20 -26 1 -2 10 3 16 13 16 10 0 15
-7 13 -17z m5448 -149 c-5 -13 -10 -14 -18 -6 -6 6 -8 18 -4 28 5 13 10 14 18
6 6 -6 8 -18 4 -28z m-7206 -69 c0 -8 -7 -15 -15 -15 -8 0 -15 7 -15 15 0 8 7
15 15 15 8 0 15 -7 15 -15z m-780 -125 c0 -5 -4 -10 -10 -10 -5 0 -10 5 -10
10 0 6 5 10 10 10 6 0 10 -4 10 -10z m2598 -97 c-5 -25 -28 -28 -28 -4 0 12 6
21 16 21 9 0 14 -7 12 -17z m5116 -214 c-3 -5 -10 -7 -15 -3 -5 3 -7 10 -3 15
3 5 10 7 15 3 5 -3 7 -10 3 -15z m-7424 -29 c0 -5 -2 -10 -4 -10 -3 0 -8 5
-11 10 -3 6 -1 10 4 10 6 0 11 -4 11 -10z m-670 -41 c0 -10 -6 -19 -13 -19
-22 0 -27 11 -16 32 12 22 29 15 29 -13z m3565 -109 c-3 -5 -10 -10 -16 -10
-5 0 -9 5 -9 10 0 6 7 10 16 10 8 0 12 -4 9 -10z m5285 -140 c0 -5 -7 -10 -16
-10 -8 0 -12 5 -9 10 3 6 10 10 16 10 5 0 9 -4 9 -10z m-810 -91 c0 -5 -4 -9
-10 -9 -5 0 -10 7 -10 16 0 8 5 12 10 9 6 -3 10 -10 10 -16z m-690 -109 c0 -5
-4 -10 -10 -10 -5 0 -10 5 -10 10 0 6 5 10 10 10 6 0 10 -4 10 -10z m310 -49
c0 -6 -4 -13 -10 -16 -5 -3 -10 1 -10 9 0 9 5 16 10 16 6 0 10 -4 10 -9z
m-3520 -57 c0 -8 -4 -12 -10 -9 -5 3 -10 13 -10 21 0 8 5 12 10 9 6 -3 10 -13
10 -21z m-1562 -29 c1 -22 3 -51 5 -65 1 -16 -4 -26 -15 -28 -14 -3 -18 3 -18
27 0 17 -5 31 -10 31 -6 0 -15 12 -20 26 -13 32 3 56 34 52 17 -2 22 -11 24
-43z m1301 21 c9 -10 8 -15 -1 -19 -17 -6 -58 10 -58 23 0 15 46 12 59 -4z
m3863 -18 c-15 -15 -26 -4 -18 18 5 13 9 15 18 6 9 -9 9 -15 0 -24z m-32 -32
c0 -40 -30 -61 -62 -44 -25 12 -22 33 8 57 30 23 54 18 54 -13z m-7151 -26
c-6 -4 -7 -18 -3 -33 5 -22 3 -27 -12 -27 -11 0 -34 9 -52 20 -18 11 -39 20
-48 20 -13 0 -13 -4 2 -30 25 -41 11 -48 -30 -14 -40 33 -43 44 -17 51 11 3
22 14 25 25 4 18 10 20 48 15 24 -3 50 -2 58 3 11 7 19 5 27 -7 9 -12 10 -19
2 -23z m9911 -40 c0 -5 -7 -10 -15 -10 -8 0 -15 5 -15 10 0 6 7 10 15 10 8 0
15 -4 15 -10z m-7945 -20 c0 -8 -10 -16 -22 -18 -22 -3 -32 16 -16 32 12 11
38 2 38 -14z m3292 -17 c3 -7 -2 -15 -9 -18 -18 -7 -71 12 -65 22 8 13 70 9
74 -4z m-87 -32 c0 -23 -16 -36 -25 -21 -9 14 1 40 15 40 5 0 10 -9 10 -19z
m-4540 -27 c0 -17 -22 -14 -28 4 -2 7 3 12 12 12 9 0 16 -7 16 -16z m-222 -27
c2 -12 -3 -17 -17 -17 -12 0 -21 6 -21 13 0 31 32 34 38 4z m762 13 c0 -5 -4
-10 -10 -10 -5 0 -10 5 -10 10 0 6 5 10 10 10 6 0 10 -4 10 -10z m-899 -33
c-1 -12 -15 -9 -19 4 -3 6 1 10 8 8 6 -3 11 -8 11 -12z m834 -47 c3 -5 -1 -10
-9 -10 -9 0 -16 5 -16 10 0 6 4 10 9 10 6 0 13 -4 16 -10z m-885 -110 c0 -11
-7 -20 -15 -20 -15 0 -21 21 -8 33 12 13 23 7 23 -13z m501 -25 c0 -5 -9 -11
-21 -13 -20 -3 -27 8 -13 22 10 9 34 3 34 -9z m474 -15 c0 -7 -6 -15 -12 -17
-8 -3 -13 4 -13 17 0 13 5 20 13 18 6 -3 12 -11 12 -18z m-517 -17 c5 -17 -26
-29 -40 -15 -6 6 -7 15 -3 22 9 14 37 9 43 -7z m162 -3 c0 -5 -9 -10 -20 -10
-11 0 -20 5 -20 10 0 6 9 10 20 10 11 0 20 -4 20 -10z m-407 -14 c8 -21 -22
-44 -33 -26 -10 17 -2 40 15 40 7 0 15 -6 18 -14z m557 -26 c0 -11 -7 -20 -15
-20 -8 0 -15 9 -15 20 0 11 7 20 15 20 8 0 15 -9 15 -20z m8913 -48 c21 -18
22 -55 2 -72 -8 -7 -21 -24 -29 -39 -96 -182 -100 -186 -195 -202 -81 -13 -94
-20 -130 -73 -17 -24 -44 -55 -60 -69 -23 -19 -32 -38 -41 -87 -6 -35 -18 -73
-27 -86 -11 -18 -13 -36 -9 -69 7 -44 6 -46 -53 -113 -34 -37 -79 -77 -101
-90 l-40 -23 0 37 c0 20 -10 54 -22 75 -21 38 -21 40 -4 70 21 35 30 193 12
208 -6 5 -28 12 -48 16 -26 5 -38 13 -38 24 0 19 50 48 100 57 56 11 88 31
144 92 16 17 35 32 41 32 6 0 25 10 43 23 29 22 36 23 81 13 45 -9 53 -8 73
11 14 12 42 23 71 26 39 4 57 12 87 42 36 35 38 41 42 107 3 57 8 74 25 88 26
21 53 22 76 2z m-8603 -12 c0 -11 -6 -20 -13 -20 -19 0 -27 10 -20 26 8 21 33
17 33 -6z m7604 -83 c-8 -21 -23 -22 -31 -1 -7 18 17 38 30 25 4 -4 5 -15 1
-24z m-7884 13 c0 -5 -4 -10 -10 -10 -5 0 -10 5 -10 10 0 6 5 10 10 10 6 0 10
-4 10 -10z m-366 -81 c-3 -5 -10 -7 -15 -3 -5 3 -7 10 -3 15 3 5 10 7 15 3 5
-3 7 -10 3 -15z m3009 -3 c6 -16 -16 -40 -26 -29 -4 3 -7 15 -7 25 0 21 25 24
33 4z m2552 -69 c-8 -28 -75 -127 -85 -127 -20 0 -19 39 2 82 33 66 99 102 83
45z m2605 3 c0 -5 -2 -10 -4 -10 -3 0 -8 5 -11 10 -3 6 -1 10 4 10 6 0 11 -4
11 -10z m-7113 -14 c-3 -8 1 -20 9 -26 16 -15 19 -46 3 -55 -15 -10 -21 0 -29
50 -5 36 -4 45 8 45 8 0 12 -6 9 -14z m-2030 -2 c-3 -3 -12 -4 -19 -1 -8 3 -5
6 6 6 11 1 17 -2 13 -5z m1631 -48 c3 -12 -1 -17 -10 -14 -7 3 -15 13 -16 22
-3 12 1 17 10 14 7 -3 15 -13 16 -22z m-53 -44 c0 -18 -20 -15 -23 4 -3 10 1
15 10 12 7 -3 13 -10 13 -16z m-334 -37 c-1 -15 -24 -12 -29 3 -3 9 2 13 12
10 10 -1 17 -7 17 -13z m-101 -25 c0 -5 -2 -10 -4 -10 -3 0 -8 5 -11 10 -3 6
-1 10 4 10 6 0 11 -4 11 -10z m225 -20 c-5 -8 -11 -8 -17 -2 -6 6 -7 16 -3 22
5 8 11 8 17 2 6 -6 7 -16 3 -22z m690 11 c-6 -21 19 -49 30 -31 9 14 25 3 24
-18 0 -14 -2 -13 -9 3 -9 20 -9 20 -15 -2 -8 -26 -31 -37 -42 -20 -13 21 -9
87 5 87 8 0 11 -7 7 -19z m-970 -21 c-3 -5 -10 -10 -16 -10 -5 0 -9 5 -9 10 0
6 7 10 16 10 8 0 12 -4 9 -10z m5574 -19 c18 -16 20 -23 12 -40 -6 -11 -11
-24 -11 -30 0 -15 73 -27 78 -12 4 13 32 15 32 1 0 -5 -6 -13 -12 -17 -33 -21
-39 -39 -23 -76 18 -43 19 -50 5 -42 -5 3 -10 1 -10 -4 0 -6 -17 -18 -37 -26
-21 -9 -47 -24 -58 -35 -73 -68 -106 -105 -111 -126 -9 -34 -52 -32 -90 4 -39
38 -66 52 -91 46 -26 -7 -43 -61 -36 -114 6 -46 -7 -52 -31 -15 -14 22 -24 25
-72 25 -30 0 -68 -7 -85 -16 -66 -34 -207 7 -228 67 -12 35 -14 101 -5 137 7
26 51 52 87 52 31 0 47 18 47 52 0 37 20 36 48 -2 28 -38 47 -38 66 -1 21 39
52 46 72 16 19 -29 45 -40 56 -23 11 18 10 76 -2 80 -6 2 -4 13 3 28 12 24 60
53 109 65 25 6 25 5 22 -40 l-4 -47 33 7 c17 4 56 9 84 11 65 3 73 8 73 43 0
19 7 31 23 39 30 15 31 15 56 -7z m2327 -16 c6 -16 -12 -45 -28 -45 -15 0 -21
30 -8 45 16 19 29 19 36 0z m-7588 -17 c-6 -18 -28 -21 -28 -4 0 9 7 16 16 16
9 0 14 -5 12 -12z m3108 -63 c-3 -9 -11 -13 -16 -10 -8 5 -7 11 1 21 14 18 24
11 15 -11z m-2561 -4 c7 -12 -12 -24 -25 -16 -11 7 -4 25 10 25 5 0 11 -4 15
-9z m-415 -46 c0 -19 -20 -29 -32 -17 -8 8 -7 16 2 26 14 17 30 12 30 -9z
m2820 5 c0 -23 -25 -27 -33 -6 -7 16 1 26 20 26 7 0 13 -9 13 -20z m-1205
-100 c3 -5 2 -16 -2 -24 -11 -20 -38 -3 -30 18 7 18 23 21 32 6z m-2129 -11
c3 -6 1 -16 -4 -21 -13 -13 -45 8 -36 23 7 12 31 11 40 -2z m3250 -28 c-10
-16 -23 -14 -30 5 -9 25 4 38 21 21 9 -8 12 -20 9 -26z m-2116 -16 c0 -8 -4
-15 -10 -15 -5 0 -10 7 -10 15 0 8 5 15 10 15 6 0 10 -7 10 -15z m3237 -1 c7
-18 -17 -38 -31 -24 -11 11 -1 40 14 40 6 0 13 -7 17 -16z m3910 -6 c-3 -8 -6
-5 -6 6 -1 11 2 17 5 13 3 -3 4 -12 1 -19z m-6806 -51 c-8 -8 -16 -7 -28 6
-16 15 -15 17 8 25 18 7 25 6 27 -5 2 -8 -1 -20 -7 -26z m1906 27 c3 -8 -1
-22 -10 -31 -14 -14 -16 -13 -26 6 -7 12 -9 26 -6 31 10 15 35 12 42 -6z
m4963 -4 c0 -5 -4 -10 -10 -10 -5 0 -10 5 -10 10 0 6 5 10 10 10 6 0 10 -4 10
-10z m-7575 -95 c0 -10 -6 -20 -12 -22 -8 -3 -13 5 -13 22 0 17 5 25 13 23 6
-3 12 -13 12 -23z m3625 -40 c0 -8 -4 -15 -10 -15 -5 0 -10 7 -10 15 0 8 5 15
10 15 6 0 10 -7 10 -15z m4015 -85 c-3 -5 -16 -10 -28 -10 -18 0 -19 2 -7 10
20 13 43 13 35 0z m-7857 -24 c3 -12 -1 -17 -10 -14 -7 3 -15 13 -16 22 -3 12
1 17 10 14 7 -3 15 -13 16 -22z m722 -62 c0 -8 -7 -14 -15 -14 -15 0 -21 21
-9 33 10 9 24 -2 24 -19z m922 -36 c-16 -16 -37 4 -28 28 6 16 8 16 23 1 13
-13 15 -19 5 -29z m-448 -3 c3 -9 0 -15 -9 -15 -8 0 -15 7 -15 15 0 8 4 15 9
15 5 0 11 -7 15 -15z m120 -10 c9 -13 16 -37 15 -52 0 -15 -3 -22 -6 -15 -3 8
-10 6 -22 -9 -14 -18 -21 -20 -38 -10 -19 10 -36 39 -38 66 -1 11 44 43 61 44
7 1 19 -10 28 -24z m-424 -20 c0 -8 -4 -15 -10 -15 -5 0 -10 7 -10 15 0 8 5
15 10 15 6 0 10 -7 10 -15z m662 -187 c31 -18 57 -50 58 -70 0 -10 6 -18 13
-18 7 0 23 -13 35 -30 13 -16 29 -30 37 -30 8 0 22 -12 32 -27 10 -16 20 -30
24 -33 11 -9 17 -50 7 -50 -6 0 -8 -9 -5 -20 5 -19 2 -20 -31 -17 -41 4 -92
26 -92 39 0 4 -16 8 -35 8 -23 0 -38 6 -42 15 -3 9 -13 15 -23 13 -9 -2 -35
16 -58 40 -33 34 -42 51 -42 78 0 42 25 94 45 94 8 0 15 5 15 10 0 14 36 12
62 -2z m-414 -45 c-2 -10 -10 -18 -18 -18 -8 0 -16 8 -18 18 -2 12 3 17 18 17
15 0 20 -5 18 -17z m-108 -152 c0 -23 -16 -36 -25 -21 -9 14 1 40 15 40 5 0
10 -9 10 -19z m7484 -32 c-3 -5 -10 -7 -15 -3 -5 3 -7 10 -3 15 3 5 10 7 15 3
5 -3 7 -10 3 -15z m-8229 -119 c4 -7 12 -7 25 0 31 17 95 12 122 -10 36 -28
115 -52 146 -45 17 3 35 0 47 -9 24 -18 121 -21 131 -4 4 6 11 25 15 42 5 22
7 25 8 10 1 -29 19 -42 82 -58 53 -14 54 -14 85 14 28 24 41 28 93 28 66 0 72
-4 81 -58 5 -33 7 -35 53 -41 27 -3 52 -11 56 -18 4 -6 9 -35 10 -62 2 -54 1
-54 -93 -137 -37 -32 -37 -33 -25 -70 7 -20 23 -45 36 -55 12 -10 23 -26 23
-35 0 -8 5 -30 12 -48 10 -28 9 -39 -7 -73 -14 -32 -16 -53 -11 -100 5 -48 3
-66 -10 -86 -25 -38 0 -30 31 10 24 33 30 35 68 31 23 -3 53 -14 67 -24 14
-11 48 -22 75 -26 97 -13 136 -29 171 -70 24 -28 32 -46 28 -59 -7 -22 10 -37
41 -37 36 -1 47 -14 35 -44 -7 -19 -7 -33 1 -48 8 -15 8 -55 -1 -152 -13 -151
-20 -176 -60 -239 -16 -26 -33 -61 -38 -79 -8 -31 -10 -32 -52 -29 -23 1 -52
6 -63 10 -28 11 -55 -5 -132 -76 l-65 -60 0 -69 c0 -58 -4 -76 -25 -107 -14
-20 -30 -37 -35 -37 -17 0 -99 -61 -119 -88 -12 -15 -25 -31 -31 -37 -6 -5
-19 -18 -28 -27 -9 -10 -22 -18 -30 -18 -7 0 -28 -11 -45 -24 -18 -14 -52 -29
-75 -35 -40 -8 -44 -8 -52 14 -5 13 -13 26 -18 29 -16 10 -52 -34 -52 -63 0
-44 -35 -62 -120 -59 -45 1 -70 6 -70 13 0 7 -28 36 -62 64 -34 29 -73 67 -85
85 -13 17 -42 47 -65 67 -38 33 -42 42 -42 80 0 24 3 56 8 72 7 22 5 27 -9 27
-9 0 -25 10 -35 23 l-19 22 -25 -27 -26 -27 36 6 c35 6 36 5 23 -16 -11 -17
-11 -25 -1 -41 11 -19 10 -20 -23 -20 -19 0 -35 4 -35 10 0 5 -11 12 -25 16
-13 3 -29 12 -36 20 -6 8 -15 12 -19 9 -5 -3 -21 6 -36 20 -28 26 -44 32 -44
16 0 -16 -58 -33 -89 -26 -23 5 -40 1 -65 -14 -18 -12 -49 -21 -69 -21 -38 0
-77 -35 -77 -70 0 -22 -20 -30 -71 -30 -22 0 -49 -5 -60 -11 -15 -7 -24 -7
-35 1 -7 7 -27 10 -43 8 -27 -4 -29 -2 -41 50 -11 49 -10 59 8 101 12 25 23
57 26 71 3 14 19 33 37 44 32 19 32 19 50 -2 9 -12 26 -22 38 -22 22 0 71 40
71 59 0 6 5 11 10 11 6 0 10 6 10 13 0 19 45 111 64 130 21 21 59 22 90 2 17
-11 33 -13 62 -7 32 7 48 4 86 -15 26 -13 50 -33 53 -44 5 -15 14 -19 33 -17
15 2 26 9 25 16 -2 6 2 12 7 12 6 0 10 -5 10 -11 0 -27 33 -79 51 -79 10 0 20
-3 23 -8 2 -4 31 -9 65 -10 63 -3 66 -2 110 57 l18 24 22 -22 c19 -19 22 -29
16 -55 -15 -63 -22 -141 -14 -157 4 -8 27 -21 51 -29 24 -7 53 -19 66 -27 19
-11 25 -11 45 1 38 24 75 28 107 11 17 -9 30 -22 30 -30 0 -8 15 -17 38 -21
20 -4 40 -11 43 -16 4 -6 14 -6 28 1 18 10 21 21 21 74 0 55 3 67 28 93 26 28
27 31 16 74 -12 42 -12 43 -13 13 l-1 -33 -64 0 c-73 0 -96 6 -96 25 0 7 -6
16 -12 19 -10 5 -10 7 0 12 25 12 11 24 -28 24 -22 0 -40 5 -40 11 0 7 -18 10
-48 7 -36 -2 -62 3 -100 21 -49 23 -52 26 -52 63 0 21 5 38 10 38 6 0 10 18
10 40 0 22 -4 40 -10 40 -5 0 -10 18 -10 40 0 33 3 40 20 40 16 0 20 7 20 33
0 17 2 41 4 52 2 11 1 14 -1 8 -16 -46 -35 37 -26 108 6 40 -12 93 -28 84 -4
-3 -10 4 -14 15 -3 11 -12 20 -20 20 -10 0 -12 11 -8 40 5 33 3 40 -11 40 -12
0 -16 10 -16 40 0 33 3 40 20 40 23 0 24 6 9 66 -9 34 -9 48 0 57 16 16 14 64
-3 74 -8 4 -24 25 -36 45 -17 30 -20 46 -15 82 7 42 6 45 -18 51 -27 7 -47 46
-47 94 0 32 -8 44 -37 60 -13 6 -23 18 -23 25 0 14 -49 36 -81 36 -25 0 -49
27 -49 56 0 14 -7 36 -16 49 -8 13 -14 34 -12 46 5 34 82 89 124 89 27 0 34 4
34 20 0 21 15 27 25 10z m1975 -26 c0 -16 -16 -19 -25 -4 -8 13 4 32 16 25 5
-4 9 -13 9 -21z m-2920 -114 c0 -5 -4 -10 -10 -10 -5 0 -10 5 -10 10 0 6 5 10
10 10 6 0 10 -4 10 -10z m3966 -31 c3 -6 2 -15 -3 -20 -12 -12 -53 1 -53 17 0
17 46 19 56 3z m2759 -128 c-9 -16 -25 -3 -18 15 4 10 9 12 15 6 6 -6 7 -15 3
-21z m2545 9 c0 -5 -4 -10 -10 -10 -5 0 -10 5 -10 10 0 6 5 10 10 10 6 0 10
-4 10 -10z m-6398 -105 c-2 -14 -9 -25 -14 -25 -5 0 -7 3 -5 8 2 4 7 15 10 25
9 25 15 21 9 -8z m2815 -1 c3 -8 1 -20 -6 -27 -14 -14 -47 15 -37 32 10 16 36
13 43 -5z m-5059 0 c27 -8 29 -30 2 -46 -11 -7 -20 -17 -20 -22 0 -13 -72 -90
-92 -98 -14 -6 -18 -3 -18 12 0 11 4 20 10 20 5 0 18 19 30 43 34 68 51 97 58
97 4 0 17 -3 30 -6z m-546 -59 c15 -27 28 -66 28 -85 1 -19 5 -44 9 -55 11
-27 2 -55 -16 -55 -9 0 -32 18 -52 40 -20 22 -42 40 -48 40 -7 0 -25 14 -42
32 l-30 32 -38 -17 c-37 -16 -65 -18 -79 -4 -4 4 -18 7 -30 7 -13 0 -26 5 -29
10 -8 14 -47 12 -65 -3 -9 -7 -21 -30 -28 -52 -7 -22 -26 -50 -42 -63 l-30
-24 0 33 c0 44 58 153 91 173 45 26 114 18 122 -15 8 -28 51 -25 71 6 12 18
24 24 49 23 18 -1 46 6 62 15 47 26 67 18 97 -38z m2854 37 c10 -10 28 -16 38
-14 11 2 26 -4 33 -14 8 -11 17 -17 21 -14 4 3 8 -5 10 -17 2 -14 -5 -27 -21
-38 -22 -14 -27 -14 -70 11 -28 15 -47 33 -47 43 0 9 -5 22 -11 28 -13 13 -4
33 15 33 7 0 21 -8 32 -18z m-2547 -126 c19 -20 20 -27 10 -50 -14 -31 -18
-31 -63 -8 -41 20 -44 33 -14 62 28 26 40 25 67 -4z m1659 -7 c-2 -6 -8 -10
-13 -10 -5 0 -11 4 -13 10 -2 6 4 11 13 11 9 0 15 -5 13 -11z m122 -58 c0 -26
-16 -35 -24 -15 -10 25 -7 34 9 34 8 0 15 -9 15 -19z m-1980 -51 c8 -5 11 -12
8 -16 -10 -9 -38 3 -38 16 0 12 10 13 30 0z m-760 -66 c0 -8 -5 -12 -10 -9 -6
4 -8 11 -5 16 9 14 15 11 15 -7z m3070 -79 c0 -8 -4 -15 -10 -15 -5 0 -10 7
-10 15 0 8 5 15 10 15 6 0 10 -7 10 -15z m445 -185 c8 -13 -4 -50 -16 -50 -13
0 -22 27 -15 45 6 17 22 20 31 5z m98 -17 c-13 -8 -23 -24 -23 -34 0 -11 -4
-19 -10 -19 -11 0 -14 53 -3 63 3 4 18 7 32 6 l26 0 -22 -16z m77 -169 c0 -8
-5 -12 -10 -9 -6 4 -8 11 -5 16 9 14 15 11 15 -7z m1510 -4 c0 -5 -4 -10 -10
-10 -5 0 -10 5 -10 10 0 6 5 10 10 10 6 0 10 -4 10 -10z m790 -56 c0 -17 -22
-14 -28 4 -2 7 3 12 12 12 9 0 16 -7 16 -16z m-2928 -36 c-15 -15 -26 -4 -18
18 5 13 9 15 18 6 9 -9 9 -15 0 -24z m2013 7 c0 -10 -5 -20 -11 -22 -13 -4
-27 24 -18 38 9 15 29 4 29 -16z m2315 -11 c11 -12 10 -18 -3 -32 -16 -15 -18
-15 -33 0 -19 18 -12 48 9 48 8 0 20 -7 27 -16z m-3445 -32 c0 -18 -20 -15
-23 4 -3 10 1 15 10 12 7 -3 13 -10 13 -16z m131 -18 c35 -17 45 -41 19 -50
-8 -4 -27 7 -45 24 -46 46 -36 55 26 26z m132 -61 c-5 -25 -28 -28 -28 -4 0
12 6 21 16 21 9 0 14 -7 12 -17z m-25 -53 c3 -10 -1 -27 -8 -37 -13 -17 -15
-17 -30 -2 -14 13 -15 21 -6 38 15 26 37 27 44 1z m-743 -80 c0 -11 -4 -20
-10 -20 -5 0 -10 9 -10 20 0 11 5 20 10 20 6 0 10 -9 10 -20z m2150 0 c0 -5
-7 -10 -15 -10 -8 0 -15 5 -15 10 0 6 7 10 15 10 8 0 15 -4 15 -10z m-5172
-395 c27 -34 25 -111 -3 -131 -32 -24 -52 -17 -65 22 -11 32 -10 39 9 65 11
15 21 37 21 49 0 27 14 25 38 -5z m3632 -39 c0 -2 -7 -9 -15 -16 -12 -10 -15
-10 -15 4 0 9 7 16 15 16 8 0 15 -2 15 -4z m-1236 -38 c-3 -4 2 -21 11 -39 9
-17 14 -38 10 -47 -5 -13 -10 -11 -30 13 -26 32 -32 74 -13 93 9 9 14 9 19 0
4 -7 6 -16 3 -20z m435 -260 c15 -46 22 -88 19 -109 -11 -67 25 -89 71 -45 35
32 94 39 99 11 6 -32 22 -42 33 -22 6 10 15 14 22 10 13 -8 47 -11 145 -12 61
-1 63 -2 83 -36 21 -34 23 -35 68 -29 43 5 47 3 63 -23 9 -15 31 -48 48 -72
30 -42 30 -44 14 -69 -9 -14 -18 -49 -19 -78 -1 -50 -24 -103 -45 -105 -6 -1
-15 -2 -20 -3 -18 -2 -30 -29 -30 -68 0 -30 -6 -41 -27 -55 -16 -10 -33 -24
-39 -32 -9 -12 -15 -13 -26 -3 -8 6 -17 9 -20 6 -10 -10 -183 -11 -195 -1 -22
17 -14 47 17 65 30 17 36 34 31 95 -2 22 2 27 19 27 16 0 21 5 18 21 -2 17
-20 28 -75 49 -40 16 -82 26 -93 23 -17 -4 -20 0 -20 25 0 38 -11 45 -67 44
-44 0 -58 12 -23 21 25 6 26 34 2 41 -10 4 -38 -1 -62 -9 -35 -12 -50 -13 -79
-3 -56 19 -66 31 -48 59 20 33 29 76 17 84 -5 3 -10 -1 -10 -9 0 -22 -22 -66
-33 -66 -16 0 -46 44 -47 70 0 14 -6 33 -14 42 -19 26 -9 78 16 78 17 0 20 -5
16 -30 -5 -35 5 -39 19 -8 10 22 11 22 30 -15 17 -34 21 -37 32 -23 11 13 11
24 1 61 -7 24 -9 61 -6 82 14 83 14 86 -24 98 -48 14 -60 23 -71 52 -12 32 -3
46 20 33 13 -6 24 -5 36 4 17 12 25 7 75 -43 46 -48 59 -69 79 -133z m1506 -8
c3 -5 1 -10 -4 -10 -6 0 -11 5 -11 10 0 6 2 10 4 10 3 0 8 -4 11 -10z m92 -6
c8 -21 -13 -42 -28 -27 -13 13 -5 43 11 43 6 0 13 -7 17 -16z m4333 -70 c0 -8
-7 -14 -15 -14 -15 0 -21 21 -9 33 10 9 24 -2 24 -19z m-3403 -98 c-9 -26 -27
-15 -27 16 1 31 1 32 15 13 9 -10 14 -24 12 -29z m-79 23 c-2 -6 -8 -10 -13
-10 -5 0 -11 4 -13 10 -2 6 4 11 13 11 9 0 15 -5 13 -11z m-670 -41 c16 -16
15 -43 -3 -58 -13 -10 -19 -10 -35 5 -25 22 -25 41 -2 54 22 13 26 13 40 -1z
m792 -33 c0 -8 -4 -15 -10 -15 -5 0 -10 7 -10 15 0 8 5 15 10 15 6 0 10 -7 10
-15z m-5130 -145 c0 -5 -4 -10 -10 -10 -5 0 -10 5 -10 10 0 6 5 10 10 10 6 0
10 -4 10 -10z m1290 -265 c0 -8 -9 -19 -20 -25 -23 -12 -28 2 -7 25 16 19 27
19 27 0z m3278 -168 c2 -10 -3 -17 -12 -17 -18 0 -29 16 -21 31 9 14 29 6 33
-14z m-5608 -838 c0 -5 -7 -9 -15 -9 -15 0 -20 12 -9 23 8 8 24 -1 24 -14z
m5518 -2 c2 -10 -3 -17 -12 -17 -18 0 -29 16 -21 31 9 14 29 6 33 -14z m602
-107 c0 -5 -2 -10 -4 -10 -3 0 -8 5 -11 10 -3 6 -1 10 4 10 6 0 11 -4 11 -10z
m-730 -319 c0 -14 -18 -23 -30 -16 -6 4 -8 11 -5 16 8 12 35 12 35 0z m2010
-1 c12 -8 11 -10 -7 -10 -13 0 -23 5 -23 10 0 13 11 13 30 0z m-7700 -40 c0
-5 -4 -10 -10 -10 -5 0 -10 5 -10 10 0 6 5 10 10 10 6 0 10 -4 10 -10z m10659
-29 c19 -12 6 -41 -19 -41 -13 0 -20 7 -20 18 0 31 14 39 39 23z m-6142 -17
c16 -3 21 -10 19 -30 -5 -44 -60 -59 -104 -28 -21 14 -24 14 -54 -11 -26 -22
-38 -26 -69 -21 -28 4 -43 1 -63 -15 -15 -12 -30 -19 -33 -16 -4 5 45 95 62
115 1 1 21 -2 45 -7 35 -8 47 -6 74 10 30 18 47 19 123 3z m-869 -96 c-4 -27
-23 -34 -32 -13 -8 21 1 35 20 35 10 0 14 -8 12 -22z m1042 -30 c0 -5 12 -13
28 -19 70 -29 128 -51 143 -56 15 -4 39 14 109 82 24 23 26 23 53 7 15 -9 27
-20 27 -25 0 -4 11 -12 25 -17 20 -8 25 -17 26 -47 1 -22 3 -29 6 -18 3 11 12
28 21 38 9 10 11 17 4 17 -6 0 -9 7 -6 15 5 12 9 13 20 4 8 -6 29 -19 47 -29
22 -12 36 -29 45 -58 15 -47 42 -61 78 -41 37 19 54 -5 61 -82 3 -35 10 -70
15 -76 6 -8 7 -32 3 -59 l-6 -46 -67 4 c-60 3 -67 1 -70 -17 -2 -11 -6 -27 -9
-35 -8 -20 -8 -40 1 -72 10 -35 -21 -108 -45 -108 -25 0 -44 26 -24 34 23 8 9
25 -15 19 -22 -6 -30 22 -8 29 6 2 13 30 16 64 3 50 0 63 -17 81 -27 29 -27
77 0 106 20 21 21 21 34 3 14 -19 52 -16 40 3 -3 6 -12 8 -21 4 -9 -3 -14 0
-12 8 2 8 -13 17 -41 24 -48 12 -71 36 -71 73 0 13 -4 20 -10 17 -15 -9 -12
-61 5 -75 22 -18 18 -60 -7 -82 -64 -55 -128 -69 -154 -34 -6 9 -14 13 -17 9
-4 -3 -7 1 -7 11 0 9 5 14 10 11 6 -3 10 -2 10 4 0 5 -6 11 -12 14 -10 3 -9 9
3 23 9 10 20 29 23 42 7 20 4 22 -34 22 -22 0 -51 7 -63 15 -33 21 -59 9 -80
-36 -10 -21 -25 -39 -33 -39 -33 0 -103 -48 -104 -71 0 -4 13 -9 29 -12 43 -9
53 -70 13 -79 -26 -6 -52 2 -52 16 0 21 -34 54 -60 58 -19 2 -26 10 -28 31 -2
15 -8 27 -13 27 -5 0 -9 6 -9 14 0 9 -16 18 -42 23 -41 9 -43 11 -40 42 1 20
-2 30 -8 26 -5 -3 -10 3 -10 14 0 11 -8 27 -17 37 -17 17 -16 17 10 10 16 -4
27 -2 27 4 0 5 14 10 30 10 17 0 30 -4 30 -10 0 -5 -4 -10 -10 -10 -5 0 -10
-12 -9 -27 l1 -28 10 28 c9 24 14 27 59 27 27 0 49 -4 49 -10 0 -5 18 -10 39
-10 48 0 58 20 27 50 -15 13 -28 44 -36 81 -7 33 -17 62 -21 65 -24 14 -6 25
31 19 29 -5 40 -3 40 6 0 6 9 2 20 -11 11 -13 20 -27 20 -32z m-1400 -18 c0
-5 -7 -10 -15 -10 -8 0 -15 5 -15 10 0 6 7 10 15 10 8 0 15 -4 15 -10z m343
-22 c-4 -61 -63 -73 -63 -13 0 35 11 45 45 42 15 -2 20 -9 18 -29z m347 12 c0
-5 -7 -10 -15 -10 -8 0 -15 5 -15 10 0 6 7 10 15 10 8 0 15 -4 15 -10z m187
-20 c31 -24 46 -25 63 -5 7 8 21 15 30 15 23 0 60 -58 60 -94 0 -16 5 -26 15
-26 8 0 15 -7 15 -15 0 -8 -7 -15 -15 -15 -8 0 -36 -11 -62 -25 -27 -13 -56
-27 -67 -30 -14 -4 -17 -11 -12 -30 8 -33 -18 -85 -44 -85 -11 0 -25 9 -32 20
-15 23 -58 27 -58 6 0 -8 5 -18 10 -21 14 -8 13 -25 -2 -25 -6 0 -19 7 -28 15
-29 26 -64 5 -79 -47 -18 -61 -46 -88 -90 -88 -33 1 -71 18 -71 33 0 4 22 18
50 32 59 30 80 65 80 132 0 69 14 109 51 146 30 29 38 32 91 31 l58 -1 0 48
c0 27 3 49 6 49 3 0 17 -9 31 -20z m1290 -57 c-2 -16 -4 -3 -4 27 0 30 2 43 4
28 2 -16 2 -40 0 -55z m1873 69 c0 -13 -12 -22 -22 -16 -10 6 -1 24 13 24 5 0
9 -4 9 -8z m-3575 -72 c-3 -5 -13 -10 -21 -10 -8 0 -14 5 -14 10 0 6 9 10 21
10 11 0 17 -4 14 -10z m655 -10 c0 -5 -13 -10 -30 -10 -16 0 -30 5 -30 10 0 6
14 10 30 10 17 0 30 -4 30 -10z m-1315 -20 c8 -26 -1 -40 -26 -40 -13 0 -19 7
-19 23 0 40 34 53 45 17z m1284 -82 c12 -15 11 -18 -3 -18 -10 0 -16 8 -16 22
0 12 1 19 3 17 1 -2 9 -12 16 -21z m2565 -7 c10 -16 -6 -42 -23 -39 -9 2 -17
13 -19 26 -3 16 2 22 17 22 11 0 22 -4 25 -9z m-2054 -36 l0 -25 -20 20 c-11
11 -20 22 -20 25 0 3 9 5 20 5 15 0 20 -7 20 -25z m-82 -145 c-2 -13 -7 -17
-16 -12 -10 7 -10 15 0 43 11 29 13 31 16 12 2 -13 2 -32 0 -43z m-358 30 c0
-11 -4 -20 -10 -20 -5 0 -10 2 -10 4 0 2 -3 11 -6 20 -4 11 -1 16 10 16 9 0
16 -8 16 -20z m-889 -95 c11 -4 39 5 68 22 41 23 54 26 78 17 42 -14 36 -38
-12 -45 -22 -3 -52 -11 -67 -17 -15 -6 -36 -9 -45 -5 -24 9 -63 51 -62 66 0 7
5 2 11 -10 6 -13 19 -25 29 -28z m1900 -87 c-3 -21 -6 -26 -9 -15 -3 17 3 47
11 47 2 0 1 -15 -2 -32z m4029 -29 c0 -25 -33 -22 -38 4 -2 12 3 17 17 17 15
0 21 -6 21 -21z m-5003 5 c-3 -3 -12 -4 -19 -1 -8 3 -5 6 6 6 11 1 17 -2 13
-5z m603 -112 c0 -17 -37 -48 -47 -38 -6 6 29 55 40 56 4 0 7 -8 7 -18z m2170
-43 c0 -5 -4 -9 -10 -9 -5 0 -10 7 -10 16 0 8 5 12 10 9 6 -3 10 -10 10 -16z
m-335 -8 c3 -5 1 -12 -5 -16 -5 -3 -10 1 -10 9 0 18 6 21 15 7z m3689 -27 c18
-7 21 -39 5 -49 -5 -4 -19 1 -30 11 -14 13 -16 20 -8 31 13 15 12 15 33 7z
m-3045 -414 c29 -80 65 -183 81 -230 16 -47 47 -130 70 -185 23 -55 55 -150
70 -211 16 -61 40 -140 54 -174 14 -35 26 -69 26 -76 0 -6 17 -65 38 -130 22
-66 58 -178 80 -250 39 -122 62 -164 90 -164 7 0 12 -8 13 -17 3 -50 8 -102
14 -138 5 -33 3 -44 -14 -59 -43 -39 -77 14 -111 174 -5 25 -25 94 -45 154
-19 60 -35 113 -35 118 0 5 -22 59 -49 121 -27 62 -68 171 -91 242 -40 127
-83 235 -141 363 -16 34 -29 68 -29 76 0 7 -8 24 -18 37 -10 13 -26 49 -34 79
-9 30 -22 71 -29 90 -47 132 -64 176 -71 185 -23 27 1 145 40 188 18 20 8 40
91 -193z m-189 -50 c0 -5 -5 -10 -11 -10 -5 0 -7 5 -4 10 3 6 8 10 11 10 2 0
4 -4 4 -10z m-440 -55 c18 -21 5 -47 -22 -43 -31 4 -40 58 -10 58 11 0 25 -7
32 -15z m-1436 -762 c9 -24 -9 -39 -29 -23 -8 7 -15 19 -15 26 0 20 37 17 44
-3z m-116 -159 c1 -11 -6 -25 -18 -32 -18 -11 -20 -10 -20 16 0 16 3 32 7 36
11 11 28 1 31 -20z m-138 -124 c0 -5 -5 -10 -11 -10 -5 0 -7 5 -4 10 3 6 8 10
11 10 2 0 4 -4 4 -10z m100 -72 c-2 -68 8 -118 28 -141 15 -17 15 -22 -8 -65
-19 -36 -31 -47 -49 -47 -32 0 -61 55 -61 117 0 41 5 52 30 75 23 20 30 35 30
63 0 20 3 40 7 43 17 17 24 3 23 -45z m80 42 c0 -5 -4 -10 -10 -10 -5 0 -10 5
-10 10 0 6 5 10 10 10 6 0 10 -4 10 -10z m-176 -46 c10 -26 7 -34 -13 -34 -21
0 -31 17 -23 38 6 17 29 15 36 -4z m-719 -363 c7 -12 -12 -24 -25 -16 -11 7
-4 25 10 25 5 0 11 -4 15 -9z m-3145 -37 c0 -8 -4 -14 -10 -14 -5 0 -10 9 -10
21 0 11 5 17 10 14 6 -3 10 -13 10 -21z m8973 -658 c7 -16 -1 -26 -20 -26 -7
0 -13 9 -13 20 0 23 25 27 33 6z m-2419 -135 c22 -25 17 -55 -10 -59 -31 -4
-47 20 -34 52 11 31 21 33 44 7z m-3164 -586 c0 -8 -4 -15 -10 -15 -5 0 -10 7
-10 15 0 8 5 15 10 15 6 0 10 -7 10 -15z m3490 -405 c0 -5 -2 -10 -4 -10 -3 0
-8 5 -11 10 -3 6 -1 10 4 10 6 0 11 -4 11 -10z m-4303 -236 c8 -20 -13 -42
-27 -28 -12 12 -3 44 11 44 5 0 12 -7 16 -16z m389 -225 c3 -6 1 -16 -5 -22
-9 -9 -14 -8 -21 3 -9 15 -4 30 10 30 5 0 12 -5 16 -11z m-618 -240 c-2 -6 -8
-10 -13 -10 -5 0 -11 4 -13 10 -2 6 4 11 13 11 9 0 15 -5 13 -11z m-3558 -149
c0 -14 -31 -41 -41 -35 -10 7 -12 48 -3 58 8 8 44 -11 44 -23z m68 -109 c-5
-24 -38 -27 -38 -3 0 10 3 21 6 25 11 11 35 -5 32 -22z m6040 5 c3 -12 -1 -17
-10 -14 -7 3 -15 13 -16 22 -3 12 1 17 10 14 7 -3 15 -13 16 -22z m-1031 -862
c8 -21 -23 -52 -38 -37 -14 14 -2 53 17 53 8 0 17 -7 21 -16z m561 -138 c4
-36 -11 -54 -33 -36 -15 13 -20 51 -8 64 15 15 38 0 41 -28z m-463 -236 c-5
-8 -11 -8 -17 -2 -6 6 -7 16 -3 22 5 8 11 8 17 2 6 -6 7 -16 3 -22z m-5190
-66 c0 -10 -8 -20 -17 -22 -18 -3 -26 27 -11 42 12 11 28 0 28 -20z m3033
-1121 c-5 -25 -28 -28 -28 -4 0 12 6 21 16 21 9 0 14 -7 12 -17z m-48 -127 c0
-3 -4 -8 -10 -11 -5 -3 -10 -1 -10 4 0 6 5 11 10 11 6 0 10 -2 10 -4z m5018
-90 c3 -12 -1 -17 -10 -14 -7 3 -15 13 -16 22 -3 12 1 17 10 14 7 -3 15 -13
16 -22z m-4068 -558 c0 -16 -3 -19 -11 -11 -6 6 -8 16 -5 22 11 17 16 13 16
-11z m4688 -574 c4 -41 -24 -54 -40 -19 -13 30 -4 58 19 53 12 -2 19 -14 21
-34z m-3668 -264 c0 -5 -4 -10 -10 -10 -5 0 -10 5 -10 10 0 6 5 10 10 10 6 0
10 -4 10 -10z m587 -106 c-9 -9 -28 6 -21 18 4 6 10 6 17 -1 6 -6 8 -13 4 -17z"/>
<path d="M2440 16365 c0 -8 -3 -15 -7 -15 -5 0 -14 -4 -22 -9 -10 -7 -10 -12
5 -30 24 -28 32 -27 46 7 20 48 19 62 -2 62 -11 0 -20 -7 -20 -15z"/>
<path d="M3176 16157 c-44 -44 -94 -163 -81 -195 5 -12 13 -1 27 42 11 32 35
84 54 114 39 60 39 78 0 39z"/>
<path d="M2380 15370 c-13 -8 -12 -10 3 -10 9 0 17 5 17 10 0 12 -1 12 -20 0z"/>
<path d="M2550 15144 c0 -19 53 -74 72 -74 15 0 58 48 58 65 0 4 -9 5 -20 2
-11 -3 -20 -2 -20 3 0 4 -20 10 -45 12 -29 2 -45 -1 -45 -8z"/>
<path d="M2645 14951 c-6 -11 9 -23 19 -14 9 9 7 23 -3 23 -6 0 -12 -4 -16 -9z"/>
<path d="M4540 14300 c0 -5 5 -10 11 -10 5 0 7 5 4 10 -3 6 -8 10 -11 10 -2 0
-4 -4 -4 -10z"/>
<path d="M4450 14185 c0 -8 5 -15 10 -15 6 0 10 7 10 15 0 8 -4 15 -10 15 -5
0 -10 -7 -10 -15z"/>
<path d="M4493 12329 c-9 -9 -8 -15 3 -27 19 -19 30 -8 18 18 -7 16 -12 18
-21 9z"/>
<path d="M5040 12313 c0 -25 33 -74 49 -71 23 5 20 42 -4 46 -11 2 -26 11 -32
20 -7 9 -13 11 -13 5z"/>
<path d="M1100 22375 c-10 -12 -10 -15 4 -15 9 0 16 7 16 15 0 8 -2 15 -4 15
-2 0 -9 -7 -16 -15z"/>
<path d="M1480 21920 c0 -5 5 -10 11 -10 5 0 7 5 4 10 -3 6 -8 10 -11 10 -2 0
-4 -4 -4 -10z"/>
<path d="M206 19114 c-9 -24 -7 -31 10 -38 25 -10 46 12 33 35 -12 23 -35 25
-43 3z"/>
<path d="M4261 17414 c0 -11 3 -14 6 -6 3 7 2 16 -1 19 -3 4 -6 -2 -5 -13z"/>
<path d="M5390 16335 c0 -8 2 -15 4 -15 2 0 6 7 10 15 3 8 1 15 -4 15 -6 0
-10 -7 -10 -15z"/>
<path d="M5088 16200 c-7 -11 -18 -20 -24 -20 -18 0 -35 -26 -28 -44 7 -18 34
-22 34 -5 0 6 7 9 16 7 18 -3 52 -117 53 -174 1 -17 10 -43 21 -56 11 -14 33
-64 50 -111 25 -69 36 -86 53 -89 19 -3 22 -8 19 -40 -2 -20 2 -47 9 -60 18
-34 116 -128 134 -128 10 0 15 -10 15 -32 0 -66 28 -80 45 -23 12 44 6 61 -44
114 -77 81 -109 141 -76 141 21 0 19 17 -4 25 -25 8 -48 62 -33 77 8 8 13 6
18 -8 17 -55 24 -57 19 -4 -9 81 -15 101 -33 98 -10 -2 -18 8 -24 30 -5 20
-20 40 -36 49 -18 11 -43 49 -75 112 -26 53 -48 101 -47 107 0 12 -34 54 -44
54 -3 0 -11 -9 -18 -20z"/>
<path d="M4986 16163 c-9 -9 -7 -33 3 -33 12 0 22 28 12 34 -5 3 -11 3 -15 -1z"/>
<path d="M5471 15344 c0 -11 3 -14 6 -6 3 7 2 16 -1 19 -3 4 -6 -2 -5 -13z"/>
<path d="M5506 15285 c-8 -31 -1 -46 19 -38 10 3 15 -1 15 -13 0 -13 3 -15 11
-7 8 8 4 21 -14 48 l-25 36 -6 -26z"/>
<path d="M6845 12930 c3 -5 8 -10 11 -10 2 0 4 5 4 10 0 6 -5 10 -11 10 -5 0
-7 -4 -4 -10z"/>
<path d="M7116 12391 c-11 -18 5 -59 25 -64 24 -6 24 10 0 46 -11 17 -21 24
-25 18z"/>
</g>
</svg>
